<?xml version="1.0" standalone="no"?>
<!DOCTYPE svg PUBLIC "-//W3C//DTD SVG 20010904//EN"
 "http://www.w3.org/TR/2001/REC-SVG-20010904/DTD/svg10.dtd">
<svg version="1.0" xmlns="http://www.w3.org/2000/svg"
 width="1563.000000pt" height="1563.000000pt" viewBox="0 0 1563.000000 1563.000000"
 preserveAspectRatio="xMidYMid meet">
<metadata>
Created by potrace 1.11, written by Peter Selinger 2001-2013
</metadata>
<g transform="translate(0.000000,1563.000000) scale(0.100000,-0.100000)"
fill="#000000" stroke="none">
<path d="M8084 13016 c-227 -52 -494 -254 -621 -470 -122 -208 -211 -528 -253
-911 -28 -259 -31 -506 -10 -940 11 -231 20 -423 20 -427 0 -5 -22 -8 -49 -8
-62 0 -325 -26 -461 -46 -275 -40 -538 -112 -695 -192 -81 -41 -137 -95 -286
-279 -23 -29 -45 -53 -49 -53 -4 0 -61 24 -128 54 -333 150 -847 336 -1176
425 -290 79 -713 163 -968 191 -206 24 -487 12 -723 -30 -685 -121 -1312 -537
-1694 -1125 -355 -545 -488 -1189 -380 -1833 97 -584 418 -1145 874 -1529 287
-242 666 -437 1027 -529 159 -40 315 -63 510 -75 298 -18 606 11 876 82 668
175 1384 465 2102 851 l194 105 55 -76 c245 -338 483 -589 684 -719 59 -38 84
-47 190 -68 96 -19 477 -74 515 -74 5 0 16 -53 26 -117 30 -192 103 -600 157
-871 87 -441 111 -641 89 -746 -20 -97 -99 -166 -190 -166 -40 0 -139 53 -215
114 -142 115 -272 153 -420 123 -115 -24 -191 -65 -263 -141 -97 -105 -131
-195 -132 -352 0 -165 47 -296 145 -402 130 -140 293 -196 503 -172 120 13
193 34 291 81 112 53 191 110 279 204 218 229 338 561 399 1108 19 175 24 812
9 1170 l-9 207 23 0 c12 0 83 14 158 31 123 28 144 36 212 82 160 107 440 416
638 705 40 59 77 108 81 110 4 1 88 -41 187 -94 690 -374 1401 -666 2064 -849
334 -92 645 -127 940 -106 542 38 1006 208 1415 516 341 257 585 555 772 941
342 705 338 1531 -11 2239 -248 503 -645 905 -1144 1159 -407 207 -816 295
-1277 275 -167 -7 -395 -36 -395 -51 0 -4 -8 -8 -19 -8 -10 0 -88 -14 -172
-31 -536 -107 -1084 -287 -1681 -554 l-213 -95 -18 25 c-10 14 -22 23 -27 20
-4 -3 -14 3 -21 13 -13 15 -12 16 4 3 9 -7 17 -10 17 -6 0 10 -135 175 -194
237 -90 95 -368 193 -716 252 -262 46 -453 64 -799 76 -139 5 -255 11 -257 13
-2 2 -31 163 -63 358 -33 195 -83 487 -110 649 -81 482 -99 670 -73 765 15 51
66 114 108 131 78 33 160 12 292 -74 34 -22 97 -55 140 -73 72 -31 84 -33 192
-34 97 0 124 4 172 23 79 32 154 90 210 164 113 150 139 367 62 526 -33 68
-135 172 -216 220 -105 62 -189 85 -323 88 -77 2 -142 -1 -181 -10z m4679
-2652 c97 -10 177 -20 177 -24 0 -3 -48 -28 -107 -55 -336 -152 -952 -463
-1373 -693 -374 -204 -1080 -615 -1080 -628 0 -3 17 4 38 16 745 444 1254 725
1852 1022 l284 142 113 -59 c230 -120 466 -297 659 -497 746 -771 924 -1946
440 -2908 -241 -480 -645 -889 -1112 -1127 -90 -46 -94 -47 -131 -34 -65 22
-629 304 -803 402 -221 123 -617 361 -880 529 -238 151 -259 164 -267 156 -15
-15 727 -472 1137 -701 160 -89 577 -300 735 -372 l90 -41 -60 -27 c-79 -35
-301 -108 -395 -129 -41 -10 -83 -21 -92 -26 -32 -18 -430 90 -824 224 -505
171 -1101 438 -1612 722 -78 43 -166 92 -195 108 -29 16 -132 76 -230 133 -99
57 -181 103 -183 101 -3 -4 295 -179 406 -240 25 -13 45 -31 44 -39 -1 -17
-145 -224 -258 -369 -107 -139 -362 -394 -451 -452 -64 -43 -84 -49 -235 -82
-265 -57 -398 -69 -665 -63 -230 6 -340 17 -631 68 -68 12 -124 25 -124 30 0
4 84 88 188 185 300 286 648 637 795 804 l137 155 -322 3 c-178 1 -333 0 -346
-3 l-23 -6 26 -32 c15 -18 91 -100 170 -183 l144 -152 -217 -214 c-119 -119
-280 -274 -357 -345 -77 -72 -157 -150 -178 -173 l-37 -42 -38 23 c-248 151
-558 494 -858 951 -106 160 -150 222 -104 143 13 -22 59 -93 102 -157 78 -117
78 -118 56 -132 -54 -33 -300 -162 -506 -265 -504 -252 -964 -439 -1440 -586
-435 -134 -671 -176 -987 -179 -158 -1 -201 3 -349 29 -110 19 -162 32 -150
37 11 4 88 34 171 67 441 174 989 457 1551 802 262 161 633 401 628 406 -2 2
-80 -45 -172 -105 -632 -408 -1180 -722 -1601 -916 -235 -108 -193 -104 -330
-34 -233 118 -461 286 -658 483 -208 210 -338 392 -470 660 -123 249 -199 487
-242 765 -28 177 -25 589 5 764 49 286 120 505 241 746 325 649 912 1130 1620
1326 146 41 155 41 397 -6 498 -98 1013 -261 1559 -495 99 -42 212 -93 250
-112 39 -19 160 -78 270 -130 273 -130 595 -302 925 -495 74 -43 140 -77 148
-76 8 2 -13 18 -47 37 -33 19 -60 36 -58 37 4 5 297 44 327 44 l30 0 0 -60 0
-60 391 0 390 0 -7 71 -7 72 89 -7 c171 -13 537 -62 562 -75 8 -5 -2 -15 -28
-30 -23 -13 -39 -25 -36 -28 3 -3 18 4 35 16 16 12 43 27 60 34 30 13 24 14
-111 36 -171 26 -466 61 -525 61 -23 0 -45 5 -49 11 -3 6 -19 108 -35 227 -30
223 -124 848 -135 891 l-5 24 228 -6 c536 -16 974 -80 1279 -188 132 -46 187
-76 179 -97 -16 -39 -28 -89 -76 -322 -28 -135 -73 -341 -101 -458 -27 -118
-48 -215 -46 -218 7 -6 86 330 148 632 33 159 67 310 76 337 l16 47 50 -60
c28 -33 54 -57 58 -55 4 3 14 -3 21 -13 13 -15 12 -16 -3 -3 -10 7 -18 9 -18
4 0 -13 35 -45 42 -38 3 3 13 -5 24 -17 15 -18 16 -20 2 -9 -10 7 -18 9 -18 4
0 -13 35 -45 42 -38 3 3 11 -2 19 -12 9 -11 10 -14 2 -9 -21 12 -15 -3 18 -44
18 -22 36 -37 42 -33 6 3 7 1 3 -5 -3 -6 22 -48 57 -94 103 -134 217 -313 290
-458 69 -136 87 -167 68 -118 -31 83 -164 321 -241 433 -15 22 -53 79 -83 127
l-56 87 42 20 c698 318 1230 502 1800 620 270 56 709 112 817 104 19 -1 115
-10 213 -19z m-5539 -156 c3 -24 14 -261 26 -528 11 -267 23 -506 25 -532 7
-56 29 -48 -210 -79 l-170 -21 -159 91 c-138 80 -344 192 -591 320 l-70 37
-33 139 c-29 120 -69 271 -88 326 -10 29 227 127 432 178 189 48 595 104 786
110 l47 1 5 -42z m-1259 -311 c13 -47 95 -391 95 -401 0 -5 -331 153 -342 163
-9 8 -14 29 -7 28 9 -3 39 24 39 35 0 6 -8 4 -17 -3 -16 -13 -17 -12 -4 3 7
10 17 16 21 13 4 -2 47 47 96 109 49 63 92 112 96 109 4 -2 15 -27 23 -56z"/>
<path d="M3375 9986 c561 -276 1175 -609 1717 -933 150 -89 220 -126 173 -90
-67 50 -828 483 -1190 677 -238 127 -963 490 -979 490 -6 -1 120 -65 279 -144z"/>
<path d="M8778 9013 c6 -2 18 -2 25 0 6 3 1 5 -13 5 -14 0 -19 -2 -12 -5z"/>
<path d="M8925 8984 c117 -25 131 -27 123 -19 -6 7 -196 45 -217 44 -9 -1 34
-12 94 -25z"/>
<path d="M12807 8912 c-21 -23 -21 -27 -1 -46 13 -13 43 -16 168 -16 140 0
154 2 171 20 17 19 17 21 0 40 -17 18 -31 20 -170 20 -134 0 -154 -2 -168 -18z"/>
<path d="M12285 8781 c-11 -5 -130 -132 -265 -283 l-245 -275 -3 266 c-2 294
-2 291 -67 291 -64 0 -65 -7 -65 -306 0 -148 3 -307 7 -352 5 -74 9 -85 29
-94 13 -6 32 -7 48 -2 15 5 126 121 267 279 133 149 246 272 250 273 5 2 9
-116 9 -262 0 -252 1 -266 19 -276 26 -14 74 -13 89 2 9 9 12 104 12 364 l0
353 -22 15 c-25 18 -34 19 -63 7z"/>
<path d="M13243 8775 c-11 -8 -128 -135 -260 -281 l-238 -267 -2 259 c-3 250
-4 260 -24 277 -25 20 -68 22 -92 5 -16 -12 -17 -43 -15 -368 l3 -354 27 -15
c23 -14 30 -14 56 -1 16 8 137 135 268 282 131 147 240 265 244 262 3 -3 7
-123 10 -267 l5 -262 28 -9 c17 -6 37 -6 55 0 l27 9 3 355 c2 352 2 355 -19
373 -26 21 -48 22 -76 2z"/>
<path d="M7680 8767 c-25 -12 -25 -14 -28 -155 l-3 -142 -234 0 -235 0 0 135
c0 132 0 135 -25 151 -30 19 -90 12 -99 -12 -3 -9 -6 -168 -6 -354 0 -294 2
-341 16 -354 18 -18 66 -21 95 -6 18 10 19 23 19 185 l0 175 235 0 c129 0 236
-1 236 -2 1 -2 4 -82 8 -178 l6 -175 28 -9 c17 -6 37 -6 55 0 l27 9 3 360 c1
197 -1 362 -5 366 -17 15 -69 18 -93 6z"/>
<path d="M9135 8770 l-140 -5 -5 -349 c-3 -230 -1 -357 5 -370 10 -20 19 -21
288 -24 269 -2 277 -2 298 19 20 20 20 22 3 40 -16 18 -33 19 -246 19 l-228 0
0 149 0 149 167 1 c170 2 193 6 193 41 0 31 -45 40 -205 40 l-155 0 0 105 0
105 209 0 c125 0 221 4 240 11 33 12 41 38 18 57 -15 13 -244 19 -442 12z"/>
<path d="M10009 8770 c-56 -10 -116 -40 -149 -75 l-25 -27 0 -268 0 -269 29
-30 c59 -61 111 -74 311 -79 99 -2 195 0 214 5 44 11 62 37 41 58 -12 12 -53
15 -212 17 -182 3 -199 5 -225 24 l-28 21 0 253 0 253 28 21 c26 19 43 21 224
24 126 1 201 6 210 13 19 17 16 36 -9 53 -18 13 -53 16 -193 15 -93 -1 -191
-5 -216 -9z"/>
<path d="M10703 8768 l-23 -11 0 -357 c0 -392 -4 -370 60 -370 61 0 60 -2 60
165 l0 153 69 41 c38 22 72 41 75 41 2 0 87 -90 187 -200 174 -191 184 -200
219 -200 24 0 43 7 54 19 17 19 14 23 -86 132 -237 259 -277 303 -272 310 2 4
85 57 184 118 125 78 180 117 180 130 0 18 -37 41 -67 41 -9 0 -133 -72 -275
-160 -142 -88 -261 -160 -263 -160 -3 0 -5 68 -5 150 l0 150 -26 10 c-31 12
-43 12 -71 -2z"/>
<path d="M5383 8760 c-13 -5 -23 -13 -23 -17 0 -14 -110 -628 -115 -640 -3 -8
-23 -13 -53 -13 -26 0 -53 -5 -60 -12 -7 -7 -12 -36 -12 -65 0 -58 14 -73 67
-73 35 0 53 16 53 47 l0 23 300 0 c290 0 300 -1 300 -19 0 -40 67 -64 111 -41
15 9 19 22 19 63 0 29 -5 58 -12 65 -7 7 -34 12 -60 12 l-48 0 0 324 c0 289
-2 325 -17 337 -19 17 -413 24 -450 9z m335 -372 l2 -298 -168 0 c-93 0 -171
2 -174 5 -2 3 19 136 48 297 29 161 53 294 54 296 0 1 53 1 118 0 l117 -3 3
-297z"/>
<path d="M6221 8751 c-18 -18 -19 -34 -14 -368 3 -191 8 -351 12 -355 8 -9
550 -12 573 -3 23 9 29 30 13 52 -12 16 -33 18 -244 21 l-231 3 0 145 0 144
161 0 c166 0 199 7 199 40 0 33 -33 40 -199 40 l-161 0 0 110 0 110 228 0
c236 0 252 3 252 42 0 34 -33 38 -304 38 -249 0 -267 -1 -285 -19z"/>
<path d="M8024 8756 c-3 -8 -4 -87 -2 -176 l3 -162 37 -33 c66 -56 114 -65
349 -65 l209 0 0 -135 c0 -132 0 -135 25 -151 30 -19 90 -12 99 12 3 9 6 168
6 354 0 376 1 370 -65 370 -61 0 -65 -12 -65 -201 l0 -169 -200 0 c-213 0
-247 6 -270 50 -6 11 -10 79 -9 155 0 92 -3 141 -11 151 -16 19 -99 19 -106 0z"/>
<path d="M2471 8741 c-62 -22 -101 -49 -118 -82 -9 -17 -13 -97 -13 -283 l0
-259 40 -38 c62 -59 110 -69 341 -69 166 0 200 2 213 16 20 20 20 28 0 45 -13
11 -69 15 -220 19 -186 5 -205 7 -223 25 -19 18 -21 39 -27 255 -5 179 -4 241
5 259 23 43 66 51 264 51 174 0 185 1 203 21 19 21 18 21 -5 40 -21 17 -41 19
-215 19 -159 -1 -200 -4 -245 -19z"/>
<path d="M3194 8739 c-19 -21 -18 -21 5 -40 20 -17 40 -19 157 -19 l134 0 2
-327 3 -328 28 -9 c17 -6 37 -6 55 0 l27 9 3 328 2 327 131 0 c134 0 169 8
169 38 0 41 -11 42 -360 42 -329 0 -337 0 -356 -21z"/>
<path d="M4162 8748 c-8 -8 -12 -58 -12 -161 0 -165 6 -185 65 -226 64 -43
114 -51 337 -51 l208 0 0 -78 c0 -133 -18 -142 -281 -142 -166 0 -177 -1 -195
-21 -19 -21 -18 -21 6 -41 23 -18 37 -19 230 -16 202 3 206 3 263 32 99 48 97
41 97 392 0 220 -3 303 -12 312 -15 15 -94 16 -103 2 -4 -6 -6 -89 -5 -185 l1
-175 -199 0 c-206 0 -254 7 -272 40 -6 10 -10 82 -10 159 0 114 -3 142 -16
155 -18 19 -85 21 -102 4z"/>
<path d="M8555 7794 c-91 -61 -144 -100 -105 -79 23 13 194 127 205 136 23 22
-8 4 -100 -57z"/>
<path d="M8730 7856 c0 -8 203 -147 208 -142 3 3 -3 8 -12 12 -21 8 -20 26 5
75 11 22 19 45 17 51 -2 5 -14 -13 -27 -40 l-23 -50 -76 49 c-68 44 -92 56
-92 45z"/>
<path d="M10182 7785 c-17 -41 -27 -75 -22 -75 10 0 65 138 58 145 -3 3 -19
-28 -36 -70z"/>
<path d="M5331 7842 c-1 -15 55 -142 63 -142 7 0 -3 26 -37 100 -14 30 -26 49
-26 42z"/>
<path d="M6616 7830 c9 -36 63 -138 63 -120 0 8 -16 44 -35 80 -19 36 -32 54
-28 40z"/>
<path d="M6812 7779 c-57 -39 -101 -73 -99 -76 3 -2 51 28 108 68 122 84 115
79 103 79 -5 0 -55 -32 -112 -71z"/>
<path d="M11268 7508 c-25 -20 -390 -688 -384 -703 8 -21 72 -30 97 -14 11 8
40 48 63 89 l42 75 221 3 221 2 47 -85 c49 -91 69 -105 122 -88 15 5 29 17 31
26 4 20 -352 665 -380 690 -24 20 -58 22 -80 5z m131 -318 l80 -145 -166 -3
c-91 -1 -168 0 -171 2 -2 3 33 72 79 155 46 83 87 147 91 143 4 -4 43 -72 87
-152z"/>
<path d="M12821 7507 c-30 -37 -381 -683 -377 -694 8 -20 51 -33 83 -24 22 6
38 25 74 92 l47 84 218 0 218 0 41 -71 c57 -101 62 -105 108 -102 78 6 77 7
-122 365 -101 180 -190 336 -199 346 -18 20 -75 23 -91 4z m136 -309 c43 -78
80 -146 81 -150 2 -4 -73 -8 -167 -8 -94 0 -171 4 -171 8 0 18 163 302 170
297 5 -3 44 -69 87 -147z"/>
<path d="M7875 7496 c-16 -7 -98 -83 -181 -167 l-151 -154 -169 162 c-145 140
-173 163 -201 163 -66 0 -65 5 -58 -369 6 -291 9 -338 23 -348 19 -16 56 -17
83 -3 18 10 19 24 19 278 l0 267 136 -137 c117 -119 141 -138 168 -138 26 0
50 19 163 134 l133 133 0 -263 c0 -250 1 -264 19 -274 11 -5 32 -10 46 -10 14
0 35 5 46 10 18 10 19 25 19 348 0 255 -3 342 -12 354 -19 24 -49 29 -83 14z"/>
<path d="M8330 7501 l-175 -6 -3 -350 c-2 -319 -1 -351 15 -362 13 -10 80 -12
287 -7 149 2 279 7 289 10 20 6 23 37 3 53 -9 8 -84 12 -240 11 l-226 0 0 145
0 145 171 2 c148 3 173 5 182 20 8 12 7 21 -2 32 -11 13 -40 16 -182 16 l-169
0 0 110 0 110 231 2 c207 3 233 5 243 20 8 14 7 22 -7 35 -20 21 -115 24 -417
14z"/>
<path d="M8973 7495 c-13 -9 -23 -22 -23 -28 0 -7 77 -81 170 -165 94 -84 170
-157 170 -162 0 -4 -76 -77 -170 -161 -93 -84 -170 -158 -170 -164 0 -22 25
-35 65 -35 37 1 50 10 198 145 88 80 161 145 163 145 3 0 77 -65 164 -145 147
-133 163 -145 198 -145 39 0 62 14 62 37 0 6 -76 80 -170 164 -93 84 -170 156
-170 160 0 4 75 76 168 160 92 83 168 159 170 169 4 21 -48 45 -80 36 -13 -3
-95 -71 -182 -150 l-159 -145 -32 27 c-18 15 -91 80 -163 145 -137 123 -169
141 -209 112z"/>
<path d="M9945 7490 c-17 -19 -18 -41 -12 -356 4 -265 8 -339 19 -345 20 -13
82 -11 96 3 9 9 12 84 12 277 l0 266 138 -138 c115 -114 142 -137 167 -137 25
0 51 21 163 135 l132 134 0 -264 c0 -251 1 -265 19 -275 29 -15 77 -12 95 6
14 13 16 58 16 342 0 365 -1 372 -63 372 -28 0 -53 -21 -199 -167 l-168 -168
-168 168 c-143 142 -173 167 -199 167 -17 0 -37 -8 -48 -20z"/>
<path d="M11726 7494 c-20 -20 -20 -28 1 -45 12 -10 52 -14 152 -14 l136 0 5
-320 5 -319 30 -9 c18 -5 41 -4 58 2 l27 11 0 319 0 320 141 3 c120 3 144 6
152 20 8 12 7 21 -2 32 -12 14 -55 16 -352 16 -294 0 -340 -2 -353 -16z"/>
<path d="M4070 7492 l-25 -8 0 -354 0 -355 277 -3 c257 -2 280 -1 330 18 30
11 68 34 84 51 29 30 29 32 29 144 0 107 -1 115 -25 140 -14 15 -37 33 -53 41
l-27 15 22 30 c19 25 23 44 23 104 0 67 -2 76 -29 104 -15 16 -51 40 -80 52
-48 22 -66 24 -276 26 -124 1 -236 -1 -250 -5z m453 -81 c45 -17 57 -39 57
-100 0 -94 -4 -95 -231 -99 l-189 -3 0 105 0 106 169 0 c93 0 181 -4 194 -9z
m45 -287 c61 -12 72 -34 72 -139 0 -105 -6 -117 -68 -135 -20 -5 -121 -10
-224 -10 l-188 0 0 145 0 145 189 0 c104 0 202 -3 219 -6z"/>
<path d="M4931 7484 l-23 -17 4 -336 c2 -185 7 -342 11 -349 6 -9 76 -12 291
-12 291 0 306 2 306 40 0 36 -44 42 -267 34 l-213 -7 0 147 0 146 161 0 c167
0 199 7 199 41 0 31 -40 39 -206 39 l-154 0 0 105 0 105 221 0 c227 0 259 5
259 40 0 11 -9 24 -19 30 -12 6 -121 10 -283 10 -228 0 -267 -2 -287 -16z"/>
<path d="M5688 7489 c-24 -13 -23 -46 1 -59 11 -5 78 -10 150 -10 l131 0 0
-309 c0 -268 2 -312 16 -325 18 -18 66 -21 95 -6 18 10 19 25 19 325 l0 315
128 0 c99 0 132 3 150 16 26 18 27 27 6 48 -13 14 -59 16 -347 16 -207 0 -339
-4 -349 -11z"/>
<path d="M2430 7470 c-34 -11 -67 -32 -87 -54 l-33 -36 0 -247 c0 -291 0 -292
97 -339 57 -29 61 -29 263 -32 193 -3 207 -2 230 16 24 20 25 20 6 41 -18 20
-29 21 -210 21 -173 0 -194 2 -223 20 l-33 20 -1 227 c-1 126 -1 235 0 243 1
8 12 24 25 36 22 19 39 21 225 27 226 6 260 16 215 61 -13 14 -47 16 -217 16
-172 -1 -210 -3 -257 -20z"/>
<path d="M3186 7475 c-61 -23 -104 -61 -116 -103 -7 -24 -10 -119 -8 -264 4
-263 3 -263 103 -313 l60 -30 205 0 205 0 60 30 c102 52 100 46 97 338 -3 287
-2 283 -88 327 -47 24 -56 25 -264 27 -168 2 -224 -1 -254 -12z m451 -81 l28
-21 0 -243 0 -243 -28 -21 c-26 -20 -41 -21 -207 -21 -166 0 -181 1 -207 21
l-28 21 -3 238 c-2 212 0 240 15 257 28 31 71 37 240 35 147 -2 164 -4 190
-23z"/>
</g>
</svg>
